<?xml version="1.0" standalone="no"?>
<!DOCTYPE svg PUBLIC "-//W3C//DTD SVG 20010904//EN"
 "http://www.w3.org/TR/2001/REC-SVG-20010904/DTD/svg10.dtd">
<svg version="1.0" xmlns="http://www.w3.org/2000/svg"
 width="128.000000pt" height="128.000000pt" viewBox="0 0 128.000000 128.000000"
 preserveAspectRatio="xMidYMid meet">
<metadata>
Created by potrace 1.11, written by Peter Selinger 2001-2013
</metadata>
<g transform="translate(0.000000,128.000000) scale(0.100000,-0.100000)"
fill="#000000" stroke="none">
<path d="M680 1270 c-19 -11 -5 -16 65 -24 105 -12 237 -60 297 -108 50 -39
81 -100 81 -159 0 -92 -69 -161 -206 -205 -72 -24 -99 -27 -222 -28 -161 -1
-211 10 -221 51 -8 30 6 44 66 68 91 35 261 23 362 -26 44 -21 46 -21 83 -3
l38 18 -32 27 c-56 46 -122 63 -266 65 -139 3 -219 -12 -301 -54 -49 -25 -94
-75 -95 -105 -4 -77 20 -115 94 -151 71 -34 93 -38 237 -42 353 -8 578 128
573 347 -3 91 -60 177 -156 233 -48 29 -157 70 -208 80 -19 3 -45 8 -59 11
-53 11 -116 14 -130 5z"/>
<path d="M1055 630 c-32 -15 -45 -30 -68 -78 -18 -38 -52 -82 -93 -122 -44
-43 -62 -66 -55 -73 29 -29 190 113 236 207 37 75 32 90 -20 66z"/>
<path d="M55 580 c-12 -19 -6 -128 10 -192 41 -159 142 -297 260 -353 51 -24
73 -28 145 -29 100 0 168 20 232 68 53 41 123 66 182 66 50 0 71 18 62 54 -8
31 -31 39 -64 22 -15 -8 -44 -17 -65 -21 -41 -8 -43 -6 -51 62 -12 94 -60 166
-146 223 -87 55 -163 74 -295 71 -208 -5 -205 -5 -235 18 -18 13 -31 17 -35
11z"/>
</g>
</svg>
